<?xml version="1.0" encoding="utf-8"?>
<!-- Generator: Adobe Illustrator 22.0.1, SVG Export Plug-In . SVG Version: 6.00 Build 0)  -->
<svg version="1.1" id="Layer_1" xmlns="http://www.w3.org/2000/svg" xmlns:xlink="http://www.w3.org/1999/xlink" x="0px" y="0px"
	 viewBox="0 0 310 148" style="enable-background:new 0 0 310 148;" xml:space="preserve">
<g>
	<path d="M119.3,128.2c-16.1-6.5-32.9-9.6-50.1-11.5c-8.6-0.9-17.3-1.6-26.4-2.4c2.8-5,5.5-9.8,8.1-14.6c0.6-1.2,1.4-1.9,2.6-2.4
		c12.9-6.1,25.8-12.1,38.6-18c21.1-10.1,41.9-20.5,61.1-34c7.6-5.4,15-11.3,19.8-19.4c4.2-7,4.1-13-0.6-18l0,0
		c-3.7-4.2-8.7-5.8-13.9-6.7c-10.7-2-21.4-1.4-31.9,0.9C103.9,7,83,15.9,64.9,30.7c-5.3,4.3-10,9.1-12.7,15.5
		c-3,7.3-0.1,12.5,7.6,13.8c2.3,0.3,4.5,0.8,6.9,1.1c-0.6,1.1-1.1,1.9-1.6,2.8c-5.4,8.8-10.9,17.5-15.5,26.7c-0.9,1.7-2,2.7-3.7,3.4
		C32.5,100,19.3,106.2,6,112.3c-1.9,0.9-3.6,2.1-4.9,3.8c-2.2,2.9-1.1,5.6,2.4,6.2c2.4,0.4,4.8,0.2,7.2,0.1c7.3-0.3,14.5-1,22.1-0.6
		c-1.1,2.4-2.2,4.4-3.3,6.6c-1.1,2.1-2.1,4.1-3.1,6.3c-0.4,0.8-0.6,1.8,0.2,2.5c0.9,0.8,1.9,0.4,2.8-0.1c0.9-0.6,1.6-1.4,2.1-2.4
		c2.1-3.7,4.2-7.3,6.2-11.1c0.8-1.7,1.9-2,3.8-2c17.9,0.2,35.6,2.5,53.2,5.8c8.5,1.5,17,3.3,24.8,7.4c4.4,2.3,7.3,5.4,7.4,10.6
		c0,1.2,0.3,2.6,1.6,2.7c1.4,0.1,2.2-1,2.5-2.4c0.9-4.1,0.7-7.9-2.3-11.3C126.3,131.4,122.9,129.6,119.3,128.2z M72.7,62.6
		c0.7-1.1,1.2-1.9,2.7-1.8c1,0.1,2.3,0,2.4-1.2c0.1-1.5-1.5-0.8-2.3-1.5l9.2-15.1c0.9-1.5,1.8-3,2.1-4.8c0.1-0.6,0.3-1.4-0.4-1.9
		c-0.6-0.4-1.4-0.3-1.9,0.1c-1.1,0.6-2.1,1.6-2.9,2.7c-4,5.8-8.1,11.6-12,17.5c-0.9,1.3-1.6,1.8-3.2,1.3c-2.3-0.7-4.7-1.1-6.9-2
		c-3.4-1.5-4.4-3.8-3.3-7.3c1.3-4.1,4.3-6.9,7.1-9.8c6.1-6.3,13.5-10.8,21.1-15c15.3-8.4,31.6-13.9,48.9-16.3
		c8.9-1.3,17.8-1.4,26.5,1.3c9.3,3,11.3,8.5,5.9,16.7c-4,6.1-9.9,10.3-15.7,14.5c-16.9,12-35.4,21-53.8,30.3
		C84.5,76.3,72.6,82,60.6,87.3c-0.8,0.4-1.5,1-2.5,0.7C62.9,79.4,67.8,71,72.7,62.6z M37.3,113.6c-0.5,0.9-1.2,1-2.1,1
		c-6.5,0.2-13.1,0.2-19.8,0.2c8.9-4.1,17.8-8.1,27.3-12.4L37.3,113.6z"/>
	<path d="M256.9,66.6c0.5,0,1-0.1,1.5-0.3c1-0.6,2.1-1.2,2.1-2.6c0-1.4-1.2-1.7-2.3-2l0,0c-1.8-0.6-3.6-0.6-5.4-0.1
		c-5,1.3-9.3,4-13.2,7.3c-2.9,2.3-5.6,4.6-8.8,7.3c1.1-2.8,2.1-4.9,2.8-7.1c1.2-4.4-0.7-6.1-4.9-4.9c-0.8,0.3-1.5,0.5-2.4,0.8
		c-9.9,3.8-18.7,9.4-27.6,14.7c-3.6,2.1-4.1,2.1-7.6-0.6c1.5-1.3,3-2.5,4.5-3.6c4.4-3.6,9.3-6.6,13.3-10.6c1.7-1.6,3.3-3.9,1.9-6.2
		c-1.2-2.2-3.7-2-5.9-1.5c-8,1.8-15.5,4.8-22.7,8.6c-2.6,1.4-5.1,2.5-8.1,2.5c-5.9-0.2-11.6,1.3-17.3,2.2c-1.1,0.1-1.4-0.2-2.1-0.9
		c-2-2.3-1.6-4.1,0.2-6c0.3-0.4,0.5-0.9,0.6-1.4c0.4-1.1,1.3-2.3,0-3.5c-1.2-1-2.5-0.8-3.7-0.2c-2.4,1.1-4.2,3-5.9,4.9
		c-6.1,7-11.4,14.5-16,22.5c-1.4,2.5-2.7,5.1-3,8.1c-0.5,3.9,1.8,5.9,5.5,5c2-0.5,3.9-1.5,5.5-2.8c6.7-4.9,11.5-11.4,15.4-18.6
		c0.5-1,0.9-1.8,2.3-2c5.4-0.8,10.6-1.8,16-2.7c0.6-0.1,1.3-0.4,1.6,0.8c0.9,2.5,2,2.9,4.3,1.5c1-0.6,1.9-1.3,2.9-2
		c6.6-4.4,13.8-7.6,21.6-9.8c-1,1.4-2.3,2-3.4,2.9c-4.2,3-8.6,5.6-12.3,9.4c-4.1,4.4-3.6,7.6,1.9,10.5c-3.1,2.1-6,4-8.9,6
		c-4.1,2.8-8.4,5.5-11.9,9.1c-1.5,1.6-2.9,3.7-1.4,5.8c1.5,2.1,3.6,0.9,5.5,0.1c6.8-3,13.1-6.8,19-11.3c3.1-2.4,5.9-5.2,6.8-9.3
		c0.3-1,0.9-1.5,1.7-1.9c4.6-2.8,9.2-5.7,13.9-8.4c4.4-2.6,9.1-4.9,14.5-7.3c-1.5,3.1-2.8,5.5-4,7.9c-1.4,2.6-2.8,5.4-3.4,8.3
		c-0.3,1.4-0.6,2.9,0.9,3.9c1.5,0.9,3,0.5,4.2-0.4c1.6-1.2,3.1-2.5,4.5-3.9c4.6-4.7,9.4-9.2,14.6-13.2
		C248,68.7,251.8,65.9,256.9,66.6z M133.8,91.3c1.6-4,3.8-7.3,5.7-10.9c1.8-3.3,4-4.2,7.4-3.3C145.1,82,137.8,90,133.8,91.3z"/>
	<path d="M309.9,68L309.9,68c-0.4-1.4-1.8-1.3-2.9-1.2c-2,0.1-3.9,1-5.7,1.8c-10.5,4.7-21.1,8.9-31.7,13.2c-1.5,0.6-3.1,1.3-4.8,1.1
		c-0.8,0-1.5,0.2-2.8-0.5c1.3,0.6,2.1,0.7,2.9,0.2c5.4-5,11.5-9.2,16.3-14.8c1.9-2.2,4-4.2,4.8-7.2c0.7-3.1-0.9-4.9-4-4.5
		c-2.8,0.3-5.3,1.6-7.5,3.2c-6.3,4.6-11.6,10.1-16.1,16.5c-1.6,2.4-2.8,4.9-3.2,7.8c-0.5,3.4,1,5.4,4.3,6c2.4,0.5,4.7,0,6.8-0.9
		c8-3.3,15.9-6.8,23.8-10.1c6-2.5,11.6-6,18-7.8C309.1,70.3,310.4,69.6,309.9,68z M279.6,62.3l-14.8,14.6
		C265.9,73.3,275.4,63.8,279.6,62.3z"/>
</g>
</svg>
